<svg xmlns="http://www.w3.org/2000/svg" width="106.532" height="41.385" viewBox="0 0 106.532 41.385">
  <defs>
    <style>
      .cls-1, .cls-2 {
        fill: #fff;
      }

      .cls-1 {
        stroke: rgba(0,0,0,0);
        stroke-miterlimit: 10;
      }

      .cls-3 {
        fill: none;
        stroke: #fff;
        stroke-width: 2px;
      }
    </style>
  </defs>
  <g id="Group_1524" data-name="Group 1524" transform="translate(-464.924 -331.063)">
    <g id="Component_16_1" data-name="Component 16 – 1" transform="translate(465 332.006)">
      <g id="Group_1526" data-name="Group 1526" transform="translate(-465 -332.006)">
        <path id="Subtraction_1" data-name="Subtraction 1" class="cls-1" d="M13997.37,6832.948a4.194,4.194,0,0,1-2.642-.823,2.856,2.856,0,0,1-1.056-2.378,3.6,3.6,0,0,1,1.52-3.019,13.152,13.152,0,0,1,3.86-1.9l.394-1.749a5.246,5.246,0,0,1-3.958,1.816,4.217,4.217,0,0,1-3.136-1.288,4.1,4.1,0,0,1-.954-1.7,5.994,5.994,0,0,1-5.118,2.788,3.239,3.239,0,0,1-2.192-.725,3.291,3.291,0,0,1-1.042-2.111,8,8,0,0,1-2.062,2.178,4.771,4.771,0,0,1-2.822.859,4.212,4.212,0,0,1-3.135-1.288,4.07,4.07,0,0,1-.943-1.662,6.138,6.138,0,0,1-1.629,1.68,6.893,6.893,0,0,1-3.8,1.271,3.444,3.444,0,0,1-2.558-.992,4.1,4.1,0,0,1-.972-2.97,11.408,11.408,0,0,1,.265-2.143l2.244-10.595h4.751l-2.376,11.221a4.128,4.128,0,0,0-.133,1.056,1.207,1.207,0,0,0,.316.939,1.548,1.548,0,0,0,1.038.281,2.524,2.524,0,0,0,1.78-.809,4.217,4.217,0,0,0,.764-1.023c0-.092,0-.185,0-.279a15.142,15.142,0,0,1,.975-5.133,11.83,11.83,0,0,1,2.9-4.553,6.426,6.426,0,0,1,4.6-1.865,3.568,3.568,0,0,1,2.013.461,1.439,1.439,0,0,1,.661,1.224v.13l1.147-5.394,4.886-.658-3.327,15.622a4.1,4.1,0,0,0-.134,1.056,1.221,1.221,0,0,0,.313.939,1.574,1.574,0,0,0,1.042.281,2.053,2.053,0,0,0,1.6-.792,4.738,4.738,0,0,0,.648-1.008c0-.086,0-.183,0-.312a15.168,15.168,0,0,1,.971-5.133,11.905,11.905,0,0,1,2.906-4.553,6.416,6.416,0,0,1,4.6-1.865,3.564,3.564,0,0,1,2.013.461,1.437,1.437,0,0,1,.662,1.224v.2l.362-1.717h4.75l-3.266,15.313a5.86,5.86,0,0,0,2.541-1.583,6.984,6.984,0,0,0,1.161-1.9c0-.145-.008-.264-.008-.376a16.4,16.4,0,0,1,.895-5.018,11.631,11.631,0,0,1,2.9-4.736,6.987,6.987,0,0,1,5.112-2,4.065,4.065,0,0,1,2.724.792,3,3,0,0,1,.908,2.375,5.946,5.946,0,0,1-1.056,3.4,7.823,7.823,0,0,1-2.8,2.491,9.088,9.088,0,0,1-3.729,1.073c-.048.541-.067.827-.067.989,0,1.819.689,2.741,2.048,2.741a4.7,4.7,0,0,0,1.978-.5,8.022,8.022,0,0,0,1.915-1.252,6.089,6.089,0,0,1-1.871,3.663,5.731,5.731,0,0,1-3.837,1.221,5.3,5.3,0,0,1-3.761-1.271,3.905,3.905,0,0,1-1-1.579,6.2,6.2,0,0,1-.915,1.052,8.118,8.118,0,0,1-3.431,1.861l-.5,2.379a7.092,7.092,0,0,1-2.276,4.405A6.014,6.014,0,0,1,13997.37,6832.948Zm1.352-6.467c-2.146.788-3.233,1.731-3.233,2.8a1.123,1.123,0,0,0,.295.76,1.077,1.077,0,0,0,.827.328,1.429,1.429,0,0,0,1.088-.757,5.972,5.972,0,0,0,.826-2.178Zm1.883-16.4a2.951,2.951,0,0,0-2.375,1.534,12.066,12.066,0,0,0-1.65,3.695,14.653,14.653,0,0,0-.595,3.811,3.15,3.15,0,0,0,.479,2.115,1.62,1.62,0,0,0,1.172.461,2.388,2.388,0,0,0,1.552-.693,3.591,3.591,0,0,0,1.087-1.882l1.682-7.818a1.3,1.3,0,0,0-.33-.809A1.231,1.231,0,0,0,14000.6,6810.081Zm-17.326,0a2.954,2.954,0,0,0-2.375,1.534,12.19,12.19,0,0,0-1.65,3.695,14.653,14.653,0,0,0-.595,3.811,3.15,3.15,0,0,0,.479,2.115,1.641,1.641,0,0,0,1.172.461,2.436,2.436,0,0,0,1.6-.725,3.783,3.783,0,0,0,1.105-2.017v-.162l1.618-7.558A1.331,1.331,0,0,0,13983.278,6810.081Zm33.694-.43c-.77,0-1.541.7-2.294,2.094a17.548,17.548,0,0,0-1.7,4.7,4.185,4.185,0,0,0,2.357-.827,6.028,6.028,0,0,0,1.784-2.027,5.372,5.372,0,0,0,.675-2.593C14017.8,6810.106,14017.519,6809.651,14016.973,6809.651Zm-60.488,15.046h-4.754l3.408-16.078,3.125-.421h1.718l-.43,2.048a13.1,13.1,0,0,1,2.03-1.52,3.842,3.842,0,0,1,1.96-.528,2.053,2.053,0,0,1,1.668.725,2.643,2.643,0,0,1,.612,1.752,2.512,2.512,0,0,1-.63,1.682,2.193,2.193,0,0,1-1.749.725,1.136,1.136,0,0,1-.971-.345,2.657,2.657,0,0,1-.38-1.006,3.347,3.347,0,0,0-.2-.63.377.377,0,0,0-.366-.2,2.278,2.278,0,0,0-1.168.281,7.919,7.919,0,0,0-1.238.975l-2.639,12.536Z" transform="translate(-13461.984 -6461)"/>
        <g id="Group_1" data-name="Group 1" transform="translate(465 333.157)">
          <path id="Path_2" data-name="Path 2" class="cls-2" d="M0,5.662,12,4.208s6.55-.946,7.009,4.055-.689,5.339-.689,5.339L.01,18.224Z" transform="translate(0 -4.136)"/>
          <path id="Path_1" data-name="Path 1" class="cls-2" d="M0,2.125,20.665-.644a11.7,11.7,0,0,1,3.163,7.057c.337,4.939-5.62,6.116-5.62,6.116L0,15.13Z" transform="translate(0 17.608)"/>
        </g>
      </g>
      <g id="Group_1525" data-name="Group 1525" transform="translate(-465 -332.006)">
        <path id="Path_3" data-name="Path 3" class="cls-3" d="M10.7,65.236S53.8,53.714,83.389,51.308c10.355-.842,30.074-2.668,32.473,10.4,1.723,10.774-17.606,19.695-17.606,19.695" transform="translate(454.481 281.293)"/>
        <path id="Path_4" data-name="Path 4" class="cls-3" d="M11.165,77.29s41.759-8.007,71.346-10.413c10.355-.842,37.225-3.951,19.808,17.687" transform="translate(454.018 276.128)"/>
      </g>
    </g>
  </g>
</svg>
